<svg xmlns="http://www.w3.org/2000/svg" xmlns:xlink="http://www.w3.org/1999/xlink" viewBox="0 0 287 94.58"><defs><style>.cls-1{fill:#2d368f;}.cls-2{fill:url(#Fading_Sky);}.cls-3{fill:#eb2227;stroke:#2d368f;stroke-miterlimit:10;}.cls-4{opacity:0.99;fill:url(#Fading_Sky-2);}</style><linearGradient id="Fading_Sky" x1="94.31" y1="52.8" x2="275.73" y2="52.8" gradientUnits="userSpaceOnUse"><stop offset="0" stop-color="#2484c6"/><stop offset="1" stop-color="#2484c6" stop-opacity="0"/></linearGradient><linearGradient id="Fading_Sky-2" x1="82.27" y1="30.8" x2="287" y2="30.8" xlink:href="#Fading_Sky"/></defs><title>Asset 5</title><g id="Layer_2" data-name="Layer 2"><g id="Layer_1-2" data-name="Layer 1"><path class="cls-1" d="M254.52,77a5.08,5.08,0,0,1-5.15,5H216.78a8,8,0,0,0-14.38,0H122.1a8,8,0,0,0-14.38,0h-2.06a8.66,8.66,0,0,1-6.76-3.27.5.5,0,0,0-.17-.26l-.13-.24-.06,0-3.25-5.93-1.38-2.52L61.26,10.09H24.13V0h41a3.36,3.36,0,0,1,2.18.8,2.87,2.87,0,0,1,.6.65l.12.18.18.34a.37.37,0,0,1,.05.11,0,0,0,0,1,0,0l.26.47,34.31,62.68L106.56,72H249.37A5.08,5.08,0,0,1,254.52,77Z"/><path class="cls-2" d="M275.73,52.8a5.08,5.08,0,0,1-5.15,5H99.79l-5.48-10H270.58A5.08,5.08,0,0,1,275.73,52.8Z"/><path class="cls-3" d="M105.76,58.37a15.35,15.35,0,0,0,9.87,4.05c5.62,0,8.91-4.33,8.91-10.6,0-5.8-2.28-9.12-8-12.35-7-3.59-11.25-8.85-11.25-17.6C105.26,12.19,110.76,5,119,5a14.67,14.67,0,0,1,9.42,3l-1.52,6.55a13.09,13.09,0,0,0-8.09-2.95c-5.82,0-8,5.07-8,9.31,0,5.8,2.59,8.66,8.47,12,7.21,4,10.87,9.12,10.87,18.25,0,9.59-4.86,17.88-14.91,17.88-4.11,0-8.6-1.75-10.88-4Z"/><path class="cls-3" d="M215.31,36.43c0,21.38-8.91,32.72-19.78,32.72-11.25,0-19.16-12.72-19.16-31.52C176.37,17.9,184.78,5,196.16,5,207.79,5,215.31,18,215.31,36.43Zm-33.06,1c0,13.27,4.93,25.16,13.59,25.16S209.5,50.9,209.5,36.8c0-12.35-4.43-25.26-13.59-25.26S182.25,23.8,182.25,37.45Z"/><path class="cls-4" d="M287,30.8a5.08,5.08,0,0,1-5.15,5H87.74l-5.47-10H281.85A5.08,5.08,0,0,1,287,30.8Z"/><path class="cls-3" d="M222.46,6.75A44.48,44.48,0,0,1,233,5.55c5.44,0,9.42,1.85,12,5.16,2.34,2.95,3.73,7.47,3.73,13s-1.14,10-3.29,13.27a15,15,0,0,1-13,6.83,13.18,13.18,0,0,1-4.42-.56V68.14h-5.5Zm5.5,30a12.91,12.91,0,0,0,4.55.64c6.64,0,10.68-4.7,10.68-13.27,0-8.2-4-12.17-10.05-12.17a16,16,0,0,0-5.18.65Z"/><path class="cls-3" d="M143.19,6V32h20.6V6h5.57V68.14h-5.57V39h-20.6V68.14h-5.5V6Z"/><polygon class="cls-1" points="71.86 48.13 28.77 48.13 42.26 13.69 26.72 13.69 0 81.91 15.54 81.91 24.86 58.13 71.86 58.13 71.86 48.13"/><path class="cls-1" d="M122.92,86.57A8,8,0,1,1,122.1,83,8,8,0,0,1,122.92,86.57Z"/><path class="cls-1" d="M217.51,86.57a8,8,0,1,1-.82-3.53A8,8,0,0,1,217.51,86.57Z"/></g></g></svg>